# xmcd
#
# Track frame offsets: 
#        182
#        17620
#        34412
#        51080
#        67045
#        80997
#        99462
#        113845
#        128067
#        143570
#        159007
#        174007
#        190110
#        205090
#        222957
#        237987
#        255807
#        270522
#        284107
#        297712
#
# Disc length: 4197 seconds
#
# Revision: 1
# Processed by: cddbd v1.5.2PL0 Copyright (c) Steve Scherf et al.
# Submitted via: ExactAudioCopy v0.99pb5
#
DISCID=21106314
DTITLE=Various Artist - 25 Years Of Rock 'N' Roll - 1981
DYEAR=1988
DGENRE=Pop
TTITLE0=Blondie - The tide is high
TTITLE1=Kim Carnes - Bette Davis eyes
TTITLE2=Specials - Ghost town
TTITLE3=Undertones - It's going to happen!
TTITLE4=Haircut One Hundred - Favourite shirts (boy meets girl)
TTITLE5=Spandau Ballet - Chant No.1 (I don't need this pressure on)
TTITLE6=Toyah - I want to be free
TTITLE7=Elvis Costello - Good year for the roses
TTITLE8=Kim Wilde - Kids in America
TTITLE9=Stray Cats - Rock this town
TTITLE10=Godley and Creme - Wedding bells
TTITLE11=Earth, Wind and Fire - Let's groove
TTITLE12=REO Speedwagon - Keep on loving you
TTITLE13=Abba - One of us
TTITLE14=Champaign - How 'bout us
TTITLE15=Aneka - Japanese boy
TTITLE16=Kiki Dee - Star
TTITLE17=Sheena Easton - For your eyes only
TTITLE18=Racey - Runaround Sue
TTITLE19=Visage - Fade to grey
EXTD=
EXTT0=
EXTT1=
EXTT2=
EXTT3=
EXTT4=
EXTT5=
EXTT6=
EXTT7=
EXTT8=
EXTT9=
EXTT10=
EXTT11=
EXTT12=
EXTT13=
EXTT14=
EXTT15=
EXTT16=
EXTT17=
EXTT18=
EXTT19=
PLAYORDER=
